%TF.GenerationSoftware,KiCad,Pcbnew,6.0.0*%
%TF.CreationDate,2022-01-23T14:48:09+02:00*%
%TF.ProjectId,hs-probe-adapter,68732d70-726f-4626-952d-616461707465,rev?*%
%TF.SameCoordinates,Original*%
%TF.FileFunction,Copper,L2,Bot*%
%TF.FilePolarity,Positive*%
%FSLAX46Y46*%
G04 Gerber Fmt 4.6, Leading zero omitted, Abs format (unit mm)*
G04 Created by KiCad (PCBNEW 6.0.0) date 2022-01-23 14:48:09*
%MOMM*%
%LPD*%
G01*
G04 APERTURE LIST*
%TA.AperFunction,ComponentPad*%
%ADD10R,1.700000X1.700000*%
%TD*%
%TA.AperFunction,ComponentPad*%
%ADD11O,1.700000X1.700000*%
%TD*%
%TA.AperFunction,SMDPad,CuDef*%
%ADD12R,2.100000X0.750000*%
%TD*%
%TA.AperFunction,SMDPad,CuDef*%
%ADD13R,2.400000X0.740000*%
%TD*%
%TA.AperFunction,ViaPad*%
%ADD14C,0.450000*%
%TD*%
%TA.AperFunction,Conductor*%
%ADD15C,0.200000*%
%TD*%
%TA.AperFunction,Conductor*%
%ADD16C,0.300000*%
%TD*%
G04 APERTURE END LIST*
D10*
%TO.P,J3,1,Pin_1*%
%TO.N,/GND*%
X45000012Y-42250004D03*
D11*
%TO.P,J3,2,Pin_2*%
%TO.N,/T_VCP_TX*%
X47540012Y-42250004D03*
%TO.P,J3,3,Pin_3*%
%TO.N,/T_VCP_RX*%
X50080012Y-42250004D03*
%TD*%
D10*
%TO.P,J5,1,Pin_1*%
%TO.N,/GND*%
X38862000Y-55372000D03*
D11*
%TO.P,J5,2,Pin_2*%
%TO.N,/T_SWCLK*%
X41402000Y-55372000D03*
%TO.P,J5,3,Pin_3*%
%TO.N,/T_SWDIO*%
X43942000Y-55372000D03*
%TO.P,J5,4,Pin_4*%
%TO.N,/T_VCC*%
X46482000Y-55372000D03*
%TD*%
D10*
%TO.P,J4,1,Pin_1*%
%TO.N,/T_VCC*%
X55350000Y-42650000D03*
D11*
%TO.P,J4,2,Pin_2*%
%TO.N,/T_SWCLK*%
X55350000Y-45190000D03*
%TO.P,J4,3,Pin_3*%
%TO.N,/GND*%
X55350000Y-47730000D03*
%TO.P,J4,4,Pin_4*%
%TO.N,/T_SWDIO*%
X55350000Y-50270000D03*
%TO.P,J4,5,Pin_5*%
%TO.N,/T_NRST*%
X55350000Y-52810000D03*
%TO.P,J4,6,Pin_6*%
%TO.N,/T_SWO*%
X55350000Y-55350000D03*
%TD*%
D12*
%TO.P,J1,1,Pin_1*%
%TO.N,/5V*%
X42300000Y-51310000D03*
%TO.P,J1,2,Pin_2*%
%TO.N,/3V3*%
X38700000Y-51310000D03*
%TO.P,J1,3,Pin_3*%
%TO.N,/T_VCC*%
X42300000Y-50040000D03*
%TO.P,J1,4,Pin_4*%
%TO.N,/T_SWDIO*%
X38700000Y-50040000D03*
%TO.P,J1,5,Pin_5*%
%TO.N,/GND*%
X42300000Y-48770000D03*
%TO.P,J1,6,Pin_6*%
%TO.N,/T_SWCLK*%
X38700000Y-48770000D03*
%TO.P,J1,7,Pin_7*%
%TO.N,/GND*%
X42300000Y-47500000D03*
%TO.P,J1,8,Pin_8*%
%TO.N,/T_SWO*%
X38700000Y-47500000D03*
%TO.P,J1,9,Pin_9*%
%TO.N,/T_JRCLK*%
X42300000Y-46230000D03*
%TO.P,J1,10,Pin_10*%
%TO.N,/T_JTDI*%
X38700000Y-46230000D03*
%TO.P,J1,11,Pin_11*%
%TO.N,/GNDDetect*%
X42300000Y-44960000D03*
%TO.P,J1,12,Pin_12*%
%TO.N,/T_NRST*%
X38700000Y-44960000D03*
%TO.P,J1,13,Pin_13*%
%TO.N,/T_VCP_RX*%
X42300000Y-43690000D03*
%TO.P,J1,14,Pin_14*%
%TO.N,/T_VCP_TX*%
X38700000Y-43690000D03*
%TD*%
D13*
%TO.P,J2,1,Pin_1*%
%TO.N,/T_VCC*%
X46310000Y-50040000D03*
%TO.P,J2,2,Pin_2*%
%TO.N,/T_SWDIO*%
X50210000Y-50040000D03*
%TO.P,J2,3,Pin_3*%
%TO.N,/GND*%
X46310000Y-48770000D03*
%TO.P,J2,4,Pin_4*%
%TO.N,/T_SWCLK*%
X50210000Y-48770000D03*
%TO.P,J2,5,Pin_5*%
%TO.N,/GND*%
X46310000Y-47500000D03*
%TO.P,J2,6,Pin_6*%
%TO.N,/T_SWO*%
X50210000Y-47500000D03*
%TO.P,J2,7,Pin_7*%
%TO.N,/T_JRCLK*%
X46310000Y-46230000D03*
%TO.P,J2,8,Pin_8*%
%TO.N,/T_JTDI*%
X50210000Y-46230000D03*
%TO.P,J2,9,Pin_9*%
%TO.N,/GNDDetect*%
X46310000Y-44960000D03*
%TO.P,J2,10,Pin_10*%
%TO.N,/T_NRST*%
X50210000Y-44960000D03*
%TD*%
D14*
%TO.N,/T_NRST*%
X40259000Y-44958000D03*
X48260000Y-44958000D03*
%TO.N,/T_JTDI*%
X40259000Y-46228000D03*
X48260000Y-46228000D03*
%TO.N,/T_SWO*%
X40259000Y-47498000D03*
X48260000Y-47498000D03*
%TO.N,/GND*%
X40767000Y-48133000D03*
X50165000Y-43942000D03*
%TO.N,/T_SWCLK*%
X48260000Y-48768000D03*
X40259000Y-48768000D03*
X51816000Y-48768000D03*
%TO.N,/T_SWDIO*%
X52048000Y-50270000D03*
X40259000Y-50038000D03*
X48260000Y-50038000D03*
%TO.N,/T_VCC*%
X46482000Y-50927000D03*
%TD*%
D15*
%TO.N,/T_VCP_TX*%
X43435998Y-42926000D02*
X44197998Y-43688000D01*
X44197998Y-43688000D02*
X46102000Y-43688000D01*
X40257000Y-43690000D02*
X41021000Y-42926000D01*
X38700000Y-43690000D02*
X40257000Y-43690000D01*
X41021000Y-42926000D02*
X43435998Y-42926000D01*
X46102000Y-43688000D02*
X47540000Y-42250000D01*
%TO.N,/T_VCP_RX*%
X42300000Y-43690000D02*
X43563000Y-43690000D01*
X44069000Y-44196000D02*
X48134000Y-44196000D01*
X43563000Y-43690000D02*
X44069000Y-44196000D01*
X48134000Y-44196000D02*
X50080000Y-42250000D01*
%TO.N,/T_NRST*%
X50210000Y-44960000D02*
X51945000Y-44960000D01*
X53086000Y-50546000D02*
X55350000Y-52810000D01*
X48262000Y-44960000D02*
X50210000Y-44960000D01*
X53086000Y-46101000D02*
X53086000Y-50546000D01*
X51945000Y-44960000D02*
X53086000Y-46101000D01*
X48260000Y-44958000D02*
X48262000Y-44960000D01*
X40259000Y-44958000D02*
X38702000Y-44958000D01*
X38702000Y-44958000D02*
X38700000Y-44960000D01*
%TO.N,/GNDDetect*%
X46310000Y-44960000D02*
X42300000Y-44960000D01*
%TO.N,/T_JTDI*%
X48262000Y-46230000D02*
X50210000Y-46230000D01*
X48260000Y-46228000D02*
X48262000Y-46230000D01*
X40259000Y-46228000D02*
X38702000Y-46228000D01*
X38702000Y-46228000D02*
X38700000Y-46230000D01*
%TO.N,/T_JRCLK*%
X42300000Y-46230000D02*
X46310000Y-46230000D01*
%TO.N,/T_SWO*%
X50208000Y-47498000D02*
X50210000Y-47500000D01*
X52578000Y-52578000D02*
X55350000Y-55350000D01*
X52578000Y-48260000D02*
X52578000Y-52578000D01*
X48260000Y-47498000D02*
X50208000Y-47498000D01*
X40257000Y-47500000D02*
X38700000Y-47500000D01*
X51818000Y-47500000D02*
X52578000Y-48260000D01*
X40259000Y-47498000D02*
X40257000Y-47500000D01*
X50210000Y-47500000D02*
X51818000Y-47500000D01*
D16*
%TO.N,/GND*%
X53848000Y-46228000D02*
X55350000Y-47730000D01*
X52324000Y-43942000D02*
X53848000Y-45466000D01*
X42300000Y-47500000D02*
X46310000Y-47500000D01*
X42291000Y-48133000D02*
X42300000Y-48142000D01*
X42300000Y-48770000D02*
X42300000Y-48142000D01*
X50165000Y-43942000D02*
X52324000Y-43942000D01*
X53848000Y-45466000D02*
X53848000Y-46228000D01*
X40767000Y-48133000D02*
X42291000Y-48133000D01*
X42300000Y-48770000D02*
X46310000Y-48770000D01*
X42300000Y-48142000D02*
X42300000Y-47500000D01*
D15*
%TO.N,/T_SWCLK*%
X40894000Y-49403000D02*
X40894000Y-52578000D01*
X40257000Y-48770000D02*
X38700000Y-48770000D01*
X50208000Y-48768000D02*
X50210000Y-48770000D01*
X50210000Y-48770000D02*
X51814000Y-48770000D01*
X40259000Y-48768000D02*
X40257000Y-48770000D01*
X41402000Y-53086000D02*
X41402000Y-55372000D01*
X40259000Y-48768000D02*
X40894000Y-49403000D01*
X51814000Y-48770000D02*
X51816000Y-48768000D01*
X48260000Y-48768000D02*
X50208000Y-48768000D01*
X40894000Y-52578000D02*
X41402000Y-53086000D01*
%TO.N,/T_SWDIO*%
X38702000Y-50038000D02*
X38700000Y-50040000D01*
X48262000Y-50040000D02*
X50210000Y-50040000D01*
X52048000Y-50270000D02*
X51818000Y-50040000D01*
X51818000Y-50040000D02*
X50210000Y-50040000D01*
X40259000Y-50038000D02*
X38702000Y-50038000D01*
X48260000Y-50038000D02*
X48262000Y-50040000D01*
D16*
%TO.N,/T_VCC*%
X46482000Y-50927000D02*
X46482000Y-50212000D01*
X42300000Y-50040000D02*
X46310000Y-50040000D01*
X46482000Y-50212000D02*
X46310000Y-50040000D01*
X46482000Y-50927000D02*
X46482000Y-55372000D01*
%TD*%
M02*
