%TF.GenerationSoftware,KiCad,Pcbnew,6.0.0*%
%TF.CreationDate,2022-01-23T14:48:09+02:00*%
%TF.ProjectId,hs-probe-adapter,68732d70-726f-4626-952d-616461707465,rev?*%
%TF.SameCoordinates,Original*%
%TF.FileFunction,Legend,Top*%
%TF.FilePolarity,Positive*%
%FSLAX46Y46*%
G04 Gerber Fmt 4.6, Leading zero omitted, Abs format (unit mm)*
G04 Created by KiCad (PCBNEW 6.0.0) date 2022-01-23 14:48:09*
%MOMM*%
%LPD*%
G01*
G04 APERTURE LIST*
%ADD10C,0.150000*%
%ADD11C,0.120000*%
G04 APERTURE END LIST*
D10*
X38703904Y-49637904D02*
X38703904Y-48837904D01*
X39046761Y-49637904D02*
X39046761Y-49218857D01*
X39008666Y-49142666D01*
X38932476Y-49104571D01*
X38818190Y-49104571D01*
X38741999Y-49142666D01*
X38703904Y-49180761D01*
X39389619Y-49599809D02*
X39465809Y-49637904D01*
X39618190Y-49637904D01*
X39694380Y-49599809D01*
X39732476Y-49523619D01*
X39732476Y-49485523D01*
X39694380Y-49409333D01*
X39618190Y-49371238D01*
X39503904Y-49371238D01*
X39427714Y-49333142D01*
X39389619Y-49256952D01*
X39389619Y-49218857D01*
X39427714Y-49142666D01*
X39503904Y-49104571D01*
X39618190Y-49104571D01*
X39694380Y-49142666D01*
X40075333Y-49333142D02*
X40684857Y-49333142D01*
X41065809Y-49104571D02*
X41065809Y-49904571D01*
X41065809Y-49142666D02*
X41141999Y-49104571D01*
X41294380Y-49104571D01*
X41370571Y-49142666D01*
X41408666Y-49180761D01*
X41446761Y-49256952D01*
X41446761Y-49485523D01*
X41408666Y-49561714D01*
X41370571Y-49599809D01*
X41294380Y-49637904D01*
X41141999Y-49637904D01*
X41065809Y-49599809D01*
X41789619Y-49637904D02*
X41789619Y-49104571D01*
X41789619Y-49256952D02*
X41827714Y-49180761D01*
X41865809Y-49142666D01*
X41941999Y-49104571D01*
X42018190Y-49104571D01*
X42399142Y-49637904D02*
X42322952Y-49599809D01*
X42284857Y-49561714D01*
X42246761Y-49485523D01*
X42246761Y-49256952D01*
X42284857Y-49180761D01*
X42322952Y-49142666D01*
X42399142Y-49104571D01*
X42513428Y-49104571D01*
X42589619Y-49142666D01*
X42627714Y-49180761D01*
X42665809Y-49256952D01*
X42665809Y-49485523D01*
X42627714Y-49561714D01*
X42589619Y-49599809D01*
X42513428Y-49637904D01*
X42399142Y-49637904D01*
X43008666Y-49637904D02*
X43008666Y-48837904D01*
X43008666Y-49142666D02*
X43084857Y-49104571D01*
X43237238Y-49104571D01*
X43313428Y-49142666D01*
X43351523Y-49180761D01*
X43389619Y-49256952D01*
X43389619Y-49485523D01*
X43351523Y-49561714D01*
X43313428Y-49599809D01*
X43237238Y-49637904D01*
X43084857Y-49637904D01*
X43008666Y-49599809D01*
X44037238Y-49599809D02*
X43961047Y-49637904D01*
X43808666Y-49637904D01*
X43732476Y-49599809D01*
X43694380Y-49523619D01*
X43694380Y-49218857D01*
X43732476Y-49142666D01*
X43808666Y-49104571D01*
X43961047Y-49104571D01*
X44037238Y-49142666D01*
X44075333Y-49218857D01*
X44075333Y-49295047D01*
X43694380Y-49371238D01*
X45370571Y-49637904D02*
X45370571Y-49218857D01*
X45332476Y-49142666D01*
X45256285Y-49104571D01*
X45103904Y-49104571D01*
X45027714Y-49142666D01*
X45370571Y-49599809D02*
X45294380Y-49637904D01*
X45103904Y-49637904D01*
X45027714Y-49599809D01*
X44989619Y-49523619D01*
X44989619Y-49447428D01*
X45027714Y-49371238D01*
X45103904Y-49333142D01*
X45294380Y-49333142D01*
X45370571Y-49295047D01*
X46094380Y-49637904D02*
X46094380Y-48837904D01*
X46094380Y-49599809D02*
X46018190Y-49637904D01*
X45865809Y-49637904D01*
X45789619Y-49599809D01*
X45751523Y-49561714D01*
X45713428Y-49485523D01*
X45713428Y-49256952D01*
X45751523Y-49180761D01*
X45789619Y-49142666D01*
X45865809Y-49104571D01*
X46018190Y-49104571D01*
X46094380Y-49142666D01*
X46818190Y-49637904D02*
X46818190Y-49218857D01*
X46780095Y-49142666D01*
X46703904Y-49104571D01*
X46551523Y-49104571D01*
X46475333Y-49142666D01*
X46818190Y-49599809D02*
X46741999Y-49637904D01*
X46551523Y-49637904D01*
X46475333Y-49599809D01*
X46437238Y-49523619D01*
X46437238Y-49447428D01*
X46475333Y-49371238D01*
X46551523Y-49333142D01*
X46741999Y-49333142D01*
X46818190Y-49295047D01*
X47199142Y-49104571D02*
X47199142Y-49904571D01*
X47199142Y-49142666D02*
X47275333Y-49104571D01*
X47427714Y-49104571D01*
X47503904Y-49142666D01*
X47541999Y-49180761D01*
X47580095Y-49256952D01*
X47580095Y-49485523D01*
X47541999Y-49561714D01*
X47503904Y-49599809D01*
X47427714Y-49637904D01*
X47275333Y-49637904D01*
X47199142Y-49599809D01*
X47808666Y-49104571D02*
X48113428Y-49104571D01*
X47922952Y-48837904D02*
X47922952Y-49523619D01*
X47961047Y-49599809D01*
X48037238Y-49637904D01*
X48113428Y-49637904D01*
X48684857Y-49599809D02*
X48608666Y-49637904D01*
X48456285Y-49637904D01*
X48380095Y-49599809D01*
X48341999Y-49523619D01*
X48341999Y-49218857D01*
X48380095Y-49142666D01*
X48456285Y-49104571D01*
X48608666Y-49104571D01*
X48684857Y-49142666D01*
X48722952Y-49218857D01*
X48722952Y-49295047D01*
X48341999Y-49371238D01*
X49065809Y-49637904D02*
X49065809Y-49104571D01*
X49065809Y-49256952D02*
X49103904Y-49180761D01*
X49141999Y-49142666D01*
X49218190Y-49104571D01*
X49294380Y-49104571D01*
X52349476Y-47352000D02*
X52273285Y-47313904D01*
X52159000Y-47313904D01*
X52044714Y-47352000D01*
X51968523Y-47428190D01*
X51930428Y-47504380D01*
X51892333Y-47656761D01*
X51892333Y-47771047D01*
X51930428Y-47923428D01*
X51968523Y-47999619D01*
X52044714Y-48075809D01*
X52159000Y-48113904D01*
X52235190Y-48113904D01*
X52349476Y-48075809D01*
X52387571Y-48037714D01*
X52387571Y-47771047D01*
X52235190Y-47771047D01*
X52730428Y-48113904D02*
X52730428Y-47313904D01*
X53187571Y-48113904D01*
X53187571Y-47313904D01*
X53568523Y-48113904D02*
X53568523Y-47313904D01*
X53759000Y-47313904D01*
X53873285Y-47352000D01*
X53949476Y-47428190D01*
X53987571Y-47504380D01*
X54025666Y-47656761D01*
X54025666Y-47771047D01*
X53987571Y-47923428D01*
X53949476Y-47999619D01*
X53873285Y-48075809D01*
X53759000Y-48113904D01*
X53568523Y-48113904D01*
X51854238Y-55695809D02*
X51968523Y-55733904D01*
X52159000Y-55733904D01*
X52235190Y-55695809D01*
X52273285Y-55657714D01*
X52311380Y-55581523D01*
X52311380Y-55505333D01*
X52273285Y-55429142D01*
X52235190Y-55391047D01*
X52159000Y-55352952D01*
X52006619Y-55314857D01*
X51930428Y-55276761D01*
X51892333Y-55238666D01*
X51854238Y-55162476D01*
X51854238Y-55086285D01*
X51892333Y-55010095D01*
X51930428Y-54972000D01*
X52006619Y-54933904D01*
X52197095Y-54933904D01*
X52311380Y-54972000D01*
X52578047Y-54933904D02*
X52768523Y-55733904D01*
X52920904Y-55162476D01*
X53073285Y-55733904D01*
X53263761Y-54933904D01*
X53720904Y-54933904D02*
X53873285Y-54933904D01*
X53949476Y-54972000D01*
X54025666Y-55048190D01*
X54063761Y-55200571D01*
X54063761Y-55467238D01*
X54025666Y-55619619D01*
X53949476Y-55695809D01*
X53873285Y-55733904D01*
X53720904Y-55733904D01*
X53644714Y-55695809D01*
X53568523Y-55619619D01*
X53530428Y-55467238D01*
X53530428Y-55200571D01*
X53568523Y-55048190D01*
X53644714Y-54972000D01*
X53720904Y-54933904D01*
X51574857Y-52533571D02*
X51574857Y-53066904D01*
X51574857Y-52609761D02*
X51612952Y-52571666D01*
X51689142Y-52533571D01*
X51803428Y-52533571D01*
X51879619Y-52571666D01*
X51917714Y-52647857D01*
X51917714Y-53066904D01*
X52755809Y-53066904D02*
X52489142Y-52685952D01*
X52298666Y-53066904D02*
X52298666Y-52266904D01*
X52603428Y-52266904D01*
X52679619Y-52305000D01*
X52717714Y-52343095D01*
X52755809Y-52419285D01*
X52755809Y-52533571D01*
X52717714Y-52609761D01*
X52679619Y-52647857D01*
X52603428Y-52685952D01*
X52298666Y-52685952D01*
X53060571Y-53028809D02*
X53174857Y-53066904D01*
X53365333Y-53066904D01*
X53441523Y-53028809D01*
X53479619Y-52990714D01*
X53517714Y-52914523D01*
X53517714Y-52838333D01*
X53479619Y-52762142D01*
X53441523Y-52724047D01*
X53365333Y-52685952D01*
X53212952Y-52647857D01*
X53136761Y-52609761D01*
X53098666Y-52571666D01*
X53060571Y-52495476D01*
X53060571Y-52419285D01*
X53098666Y-52343095D01*
X53136761Y-52305000D01*
X53212952Y-52266904D01*
X53403428Y-52266904D01*
X53517714Y-52305000D01*
X53746285Y-52266904D02*
X54203428Y-52266904D01*
X53974857Y-53066904D02*
X53974857Y-52266904D01*
X50755761Y-50615809D02*
X50870047Y-50653904D01*
X51060523Y-50653904D01*
X51136714Y-50615809D01*
X51174809Y-50577714D01*
X51212904Y-50501523D01*
X51212904Y-50425333D01*
X51174809Y-50349142D01*
X51136714Y-50311047D01*
X51060523Y-50272952D01*
X50908142Y-50234857D01*
X50831952Y-50196761D01*
X50793857Y-50158666D01*
X50755761Y-50082476D01*
X50755761Y-50006285D01*
X50793857Y-49930095D01*
X50831952Y-49892000D01*
X50908142Y-49853904D01*
X51098619Y-49853904D01*
X51212904Y-49892000D01*
X51479571Y-49853904D02*
X51670047Y-50653904D01*
X51822428Y-50082476D01*
X51974809Y-50653904D01*
X52165285Y-49853904D01*
X52470047Y-50653904D02*
X52470047Y-49853904D01*
X52660523Y-49853904D01*
X52774809Y-49892000D01*
X52851000Y-49968190D01*
X52889095Y-50044380D01*
X52927190Y-50196761D01*
X52927190Y-50311047D01*
X52889095Y-50463428D01*
X52851000Y-50539619D01*
X52774809Y-50615809D01*
X52660523Y-50653904D01*
X52470047Y-50653904D01*
X53270047Y-50653904D02*
X53270047Y-49853904D01*
X53803380Y-49853904D02*
X53955761Y-49853904D01*
X54031952Y-49892000D01*
X54108142Y-49968190D01*
X54146238Y-50120571D01*
X54146238Y-50387238D01*
X54108142Y-50539619D01*
X54031952Y-50615809D01*
X53955761Y-50653904D01*
X53803380Y-50653904D01*
X53727190Y-50615809D01*
X53651000Y-50539619D01*
X53612904Y-50387238D01*
X53612904Y-50120571D01*
X53651000Y-49968190D01*
X53727190Y-49892000D01*
X53803380Y-49853904D01*
X50514476Y-45535809D02*
X50628761Y-45573904D01*
X50819238Y-45573904D01*
X50895428Y-45535809D01*
X50933523Y-45497714D01*
X50971619Y-45421523D01*
X50971619Y-45345333D01*
X50933523Y-45269142D01*
X50895428Y-45231047D01*
X50819238Y-45192952D01*
X50666857Y-45154857D01*
X50590666Y-45116761D01*
X50552571Y-45078666D01*
X50514476Y-45002476D01*
X50514476Y-44926285D01*
X50552571Y-44850095D01*
X50590666Y-44812000D01*
X50666857Y-44773904D01*
X50857333Y-44773904D01*
X50971619Y-44812000D01*
X51238285Y-44773904D02*
X51428761Y-45573904D01*
X51581142Y-45002476D01*
X51733523Y-45573904D01*
X51924000Y-44773904D01*
X52685904Y-45497714D02*
X52647809Y-45535809D01*
X52533523Y-45573904D01*
X52457333Y-45573904D01*
X52343047Y-45535809D01*
X52266857Y-45459619D01*
X52228761Y-45383428D01*
X52190666Y-45231047D01*
X52190666Y-45116761D01*
X52228761Y-44964380D01*
X52266857Y-44888190D01*
X52343047Y-44812000D01*
X52457333Y-44773904D01*
X52533523Y-44773904D01*
X52647809Y-44812000D01*
X52685904Y-44850095D01*
X53409714Y-45573904D02*
X53028761Y-45573904D01*
X53028761Y-44773904D01*
X53676380Y-45573904D02*
X53676380Y-44773904D01*
X54133523Y-45573904D02*
X53790666Y-45116761D01*
X54133523Y-44773904D02*
X53676380Y-45231047D01*
X51968523Y-42233904D02*
X52463761Y-42233904D01*
X52197095Y-42538666D01*
X52311380Y-42538666D01*
X52387571Y-42576761D01*
X52425666Y-42614857D01*
X52463761Y-42691047D01*
X52463761Y-42881523D01*
X52425666Y-42957714D01*
X52387571Y-42995809D01*
X52311380Y-43033904D01*
X52082809Y-43033904D01*
X52006619Y-42995809D01*
X51968523Y-42957714D01*
X52692333Y-42233904D02*
X52959000Y-43033904D01*
X53225666Y-42233904D01*
X53416142Y-42233904D02*
X53911380Y-42233904D01*
X53644714Y-42538666D01*
X53759000Y-42538666D01*
X53835190Y-42576761D01*
X53873285Y-42614857D01*
X53911380Y-42691047D01*
X53911380Y-42881523D01*
X53873285Y-42957714D01*
X53835190Y-42995809D01*
X53759000Y-43033904D01*
X53530428Y-43033904D01*
X53454238Y-42995809D01*
X53416142Y-42957714D01*
X38252476Y-53321000D02*
X38176285Y-53282904D01*
X38062000Y-53282904D01*
X37947714Y-53321000D01*
X37871523Y-53397190D01*
X37833428Y-53473380D01*
X37795333Y-53625761D01*
X37795333Y-53740047D01*
X37833428Y-53892428D01*
X37871523Y-53968619D01*
X37947714Y-54044809D01*
X38062000Y-54082904D01*
X38138190Y-54082904D01*
X38252476Y-54044809D01*
X38290571Y-54006714D01*
X38290571Y-53740047D01*
X38138190Y-53740047D01*
X38633428Y-54082904D02*
X38633428Y-53282904D01*
X39090571Y-54082904D01*
X39090571Y-53282904D01*
X39471523Y-54082904D02*
X39471523Y-53282904D01*
X39662000Y-53282904D01*
X39776285Y-53321000D01*
X39852476Y-53397190D01*
X39890571Y-53473380D01*
X39928666Y-53625761D01*
X39928666Y-53740047D01*
X39890571Y-53892428D01*
X39852476Y-53968619D01*
X39776285Y-54044809D01*
X39662000Y-54082904D01*
X39471523Y-54082904D01*
X40925809Y-54006714D02*
X40887714Y-54044809D01*
X40773428Y-54082904D01*
X40697238Y-54082904D01*
X40582952Y-54044809D01*
X40506761Y-53968619D01*
X40468666Y-53892428D01*
X40430571Y-53740047D01*
X40430571Y-53625761D01*
X40468666Y-53473380D01*
X40506761Y-53397190D01*
X40582952Y-53321000D01*
X40697238Y-53282904D01*
X40773428Y-53282904D01*
X40887714Y-53321000D01*
X40925809Y-53359095D01*
X41649619Y-54082904D02*
X41268666Y-54082904D01*
X41268666Y-53282904D01*
X41916285Y-54082904D02*
X41916285Y-53282904D01*
X42373428Y-54082904D02*
X42030571Y-53625761D01*
X42373428Y-53282904D02*
X41916285Y-53740047D01*
X43122952Y-54082904D02*
X43122952Y-53282904D01*
X43313428Y-53282904D01*
X43427714Y-53321000D01*
X43503904Y-53397190D01*
X43542000Y-53473380D01*
X43580095Y-53625761D01*
X43580095Y-53740047D01*
X43542000Y-53892428D01*
X43503904Y-53968619D01*
X43427714Y-54044809D01*
X43313428Y-54082904D01*
X43122952Y-54082904D01*
X43922952Y-54082904D02*
X43922952Y-53282904D01*
X44456285Y-53282904D02*
X44608666Y-53282904D01*
X44684857Y-53321000D01*
X44761047Y-53397190D01*
X44799142Y-53549571D01*
X44799142Y-53816238D01*
X44761047Y-53968619D01*
X44684857Y-54044809D01*
X44608666Y-54082904D01*
X44456285Y-54082904D01*
X44380095Y-54044809D01*
X44303904Y-53968619D01*
X44265809Y-53816238D01*
X44265809Y-53549571D01*
X44303904Y-53397190D01*
X44380095Y-53321000D01*
X44456285Y-53282904D01*
X45491523Y-53282904D02*
X45986761Y-53282904D01*
X45720095Y-53587666D01*
X45834380Y-53587666D01*
X45910571Y-53625761D01*
X45948666Y-53663857D01*
X45986761Y-53740047D01*
X45986761Y-53930523D01*
X45948666Y-54006714D01*
X45910571Y-54044809D01*
X45834380Y-54082904D01*
X45605809Y-54082904D01*
X45529619Y-54044809D01*
X45491523Y-54006714D01*
X46215333Y-53282904D02*
X46482000Y-54082904D01*
X46748666Y-53282904D01*
X46939142Y-53282904D02*
X47434380Y-53282904D01*
X47167714Y-53587666D01*
X47282000Y-53587666D01*
X47358190Y-53625761D01*
X47396285Y-53663857D01*
X47434380Y-53740047D01*
X47434380Y-53930523D01*
X47396285Y-54006714D01*
X47358190Y-54044809D01*
X47282000Y-54082904D01*
X47053428Y-54082904D01*
X46977238Y-54044809D01*
X46939142Y-54006714D01*
X44475476Y-43796000D02*
X44399285Y-43757904D01*
X44285000Y-43757904D01*
X44170714Y-43796000D01*
X44094523Y-43872190D01*
X44056428Y-43948380D01*
X44018333Y-44100761D01*
X44018333Y-44215047D01*
X44056428Y-44367428D01*
X44094523Y-44443619D01*
X44170714Y-44519809D01*
X44285000Y-44557904D01*
X44361190Y-44557904D01*
X44475476Y-44519809D01*
X44513571Y-44481714D01*
X44513571Y-44215047D01*
X44361190Y-44215047D01*
X44856428Y-44557904D02*
X44856428Y-43757904D01*
X45313571Y-44557904D01*
X45313571Y-43757904D01*
X45694523Y-44557904D02*
X45694523Y-43757904D01*
X45885000Y-43757904D01*
X45999285Y-43796000D01*
X46075476Y-43872190D01*
X46113571Y-43948380D01*
X46151666Y-44100761D01*
X46151666Y-44215047D01*
X46113571Y-44367428D01*
X46075476Y-44443619D01*
X45999285Y-44519809D01*
X45885000Y-44557904D01*
X45694523Y-44557904D01*
X49904666Y-44557904D02*
X49638000Y-44176952D01*
X49447523Y-44557904D02*
X49447523Y-43757904D01*
X49752285Y-43757904D01*
X49828476Y-43796000D01*
X49866571Y-43834095D01*
X49904666Y-43910285D01*
X49904666Y-44024571D01*
X49866571Y-44100761D01*
X49828476Y-44138857D01*
X49752285Y-44176952D01*
X49447523Y-44176952D01*
X50171333Y-43757904D02*
X50704666Y-44557904D01*
X50704666Y-43757904D02*
X50171333Y-44557904D01*
X47015476Y-43757904D02*
X47472619Y-43757904D01*
X47244047Y-44557904D02*
X47244047Y-43757904D01*
X47663095Y-43757904D02*
X48196428Y-44557904D01*
X48196428Y-43757904D02*
X47663095Y-44557904D01*
D11*
%TO.C,J3*%
X49700012Y-32150004D02*
X50460012Y-32150004D01*
X44620012Y-32150004D02*
X45380012Y-32150004D01*
X45280012Y-38150004D02*
X45280012Y-32150004D01*
X51410012Y-40810004D02*
X51410012Y-38150004D01*
X50460012Y-41207075D02*
X50460012Y-40810004D01*
X47160012Y-38150004D02*
X47160012Y-32150004D01*
X48810012Y-40810004D02*
X48810012Y-38150004D01*
X47160012Y-41207075D02*
X47160012Y-40810004D01*
X44920012Y-38150004D02*
X44920012Y-32150004D01*
X51410012Y-38150004D02*
X43670012Y-38150004D01*
X43670012Y-38150004D02*
X43670012Y-40810004D01*
X49700012Y-41207075D02*
X49700012Y-40810004D01*
X44620012Y-38150004D02*
X44620012Y-32150004D01*
X47920012Y-41207075D02*
X47920012Y-40810004D01*
X45160012Y-38150004D02*
X45160012Y-32150004D01*
X45380012Y-32150004D02*
X45380012Y-38150004D01*
X45000012Y-43520004D02*
X43730012Y-43520004D01*
X43670012Y-40810004D02*
X51410012Y-40810004D01*
X46270012Y-40810004D02*
X46270012Y-38150004D01*
X44620012Y-41140004D02*
X44620012Y-40810004D01*
X43730012Y-43520004D02*
X43730012Y-42250004D01*
X45380012Y-41140004D02*
X45380012Y-40810004D01*
X47920012Y-32150004D02*
X47920012Y-38150004D01*
X45040012Y-38150004D02*
X45040012Y-32150004D01*
X44680012Y-38150004D02*
X44680012Y-32150004D01*
X49700012Y-38150004D02*
X49700012Y-32150004D01*
X44800012Y-38150004D02*
X44800012Y-32150004D01*
X50460012Y-32150004D02*
X50460012Y-38150004D01*
X47160012Y-32150004D02*
X47920012Y-32150004D01*
%TO.C,J5*%
X37532000Y-65462000D02*
X47812000Y-65462000D01*
X47812000Y-65462000D02*
X47812000Y-56832000D01*
X37888190Y-65462000D02*
X37888190Y-56832000D01*
X38242475Y-65462000D02*
X38242475Y-56832000D01*
X40013900Y-65462000D02*
X40013900Y-56832000D01*
X39659615Y-65462000D02*
X39659615Y-56832000D01*
X39423425Y-65462000D02*
X39423425Y-56832000D01*
X39541520Y-65462000D02*
X39541520Y-56832000D01*
X38006285Y-65462000D02*
X38006285Y-56832000D01*
X39895805Y-65462000D02*
X39895805Y-56832000D01*
X37532000Y-54262000D02*
X38862000Y-54262000D01*
X38502000Y-56832000D02*
X38502000Y-56482000D01*
X37770095Y-65462000D02*
X37770095Y-56832000D01*
X38478665Y-65462000D02*
X38478665Y-56832000D01*
X41762000Y-56832000D02*
X41762000Y-56422000D01*
X45212000Y-65462000D02*
X45212000Y-56832000D01*
X46122000Y-56832000D02*
X46122000Y-56422000D01*
X40132000Y-65462000D02*
X40132000Y-56832000D01*
X39069140Y-65462000D02*
X39069140Y-56832000D01*
X46842000Y-56832000D02*
X46842000Y-56422000D01*
X42672000Y-65462000D02*
X42672000Y-56832000D01*
X38832950Y-65462000D02*
X38832950Y-56832000D01*
X39777710Y-65462000D02*
X39777710Y-56832000D01*
X38596760Y-65462000D02*
X38596760Y-56832000D01*
X44302000Y-56832000D02*
X44302000Y-56422000D01*
X37532000Y-55372000D02*
X37532000Y-54262000D01*
X39187235Y-65462000D02*
X39187235Y-56832000D01*
X38124380Y-65462000D02*
X38124380Y-56832000D01*
X43582000Y-56832000D02*
X43582000Y-56422000D01*
X38360570Y-65462000D02*
X38360570Y-56832000D01*
X37652000Y-65462000D02*
X37652000Y-56832000D01*
X37532000Y-65462000D02*
X37532000Y-56832000D01*
X39305330Y-65462000D02*
X39305330Y-56832000D01*
X38951045Y-65462000D02*
X38951045Y-56832000D01*
X39222000Y-56832000D02*
X39222000Y-56482000D01*
X38714855Y-65462000D02*
X38714855Y-56832000D01*
X37532000Y-56832000D02*
X47812000Y-56832000D01*
X41042000Y-56832000D02*
X41042000Y-56422000D01*
%TO.C,J4*%
X59450000Y-52430000D02*
X65450000Y-52430000D01*
X56790000Y-51540000D02*
X59450000Y-51540000D01*
X65450000Y-53190000D02*
X59450000Y-53190000D01*
X59450000Y-47350000D02*
X65450000Y-47350000D01*
X59450000Y-42570000D02*
X65450000Y-42570000D01*
X56460000Y-43030000D02*
X56790000Y-43030000D01*
X65450000Y-45570000D02*
X59450000Y-45570000D01*
X65450000Y-42270000D02*
X65450000Y-43030000D01*
X59450000Y-41320000D02*
X56790000Y-41320000D01*
X56392929Y-49890000D02*
X56790000Y-49890000D01*
X56392929Y-53190000D02*
X56790000Y-53190000D01*
X59450000Y-44810000D02*
X65450000Y-44810000D01*
X59450000Y-42810000D02*
X65450000Y-42810000D01*
X56392929Y-47350000D02*
X56790000Y-47350000D01*
X56392929Y-50650000D02*
X56790000Y-50650000D01*
X65450000Y-52430000D02*
X65450000Y-53190000D01*
X56392929Y-45570000D02*
X56790000Y-45570000D01*
X65450000Y-50650000D02*
X59450000Y-50650000D01*
X65450000Y-55730000D02*
X59450000Y-55730000D01*
X59450000Y-42330000D02*
X65450000Y-42330000D01*
X56790000Y-41320000D02*
X56790000Y-56680000D01*
X59450000Y-49890000D02*
X65450000Y-49890000D01*
X65450000Y-48110000D02*
X59450000Y-48110000D01*
X54080000Y-41380000D02*
X55350000Y-41380000D01*
X59450000Y-42270000D02*
X65450000Y-42270000D01*
X59450000Y-42690000D02*
X65450000Y-42690000D01*
X65450000Y-47350000D02*
X65450000Y-48110000D01*
X56790000Y-46460000D02*
X59450000Y-46460000D01*
X56790000Y-56680000D02*
X59450000Y-56680000D01*
X65450000Y-49890000D02*
X65450000Y-50650000D01*
X56392929Y-52430000D02*
X56790000Y-52430000D01*
X59450000Y-42450000D02*
X65450000Y-42450000D01*
X65450000Y-54970000D02*
X65450000Y-55730000D01*
X65450000Y-43030000D02*
X59450000Y-43030000D01*
X56392929Y-48110000D02*
X56790000Y-48110000D01*
X56392929Y-54970000D02*
X56790000Y-54970000D01*
X56790000Y-43920000D02*
X59450000Y-43920000D01*
X59450000Y-56680000D02*
X59450000Y-41320000D01*
X56790000Y-49000000D02*
X59450000Y-49000000D01*
X56392929Y-44810000D02*
X56790000Y-44810000D01*
X54080000Y-42650000D02*
X54080000Y-41380000D01*
X65450000Y-44810000D02*
X65450000Y-45570000D01*
X56460000Y-42270000D02*
X56790000Y-42270000D01*
X59450000Y-42930000D02*
X65450000Y-42930000D01*
X56790000Y-54080000D02*
X59450000Y-54080000D01*
X59450000Y-54970000D02*
X65450000Y-54970000D01*
X56392929Y-55730000D02*
X56790000Y-55730000D01*
%TD*%
M02*
